<svg id="Layer_1" data-name="Layer 1" xmlns="http://www.w3.org/2000/svg" viewBox="0 0 1366 768"><defs><style>.cls-1{fill:#f15a24;stroke:#000;stroke-miterlimit:10;stroke-width:0.75px;}</style></defs><title>Artboard 1</title><path class="cls-1" d="M754.77,21H929.1s37.69,14.14,28.27,66V454.48S948,558.13,820.73,572.27,684.09,449.76,684.09,449.76V374.38h80.1s-9.42,89.52,33,98.94,61.26-18.84,61.26-18.84,9.42-28.27,9.42-33,4.71-292.12,4.71-292.12H750.06V21Z"/><path class="cls-1" d="M684.09,374.38h80.1v-80.1S745.34,190.62,594.57,190.62,396.68,346.11,396.68,346.11s-42.41,174.33,18.85,292.12,235.58,160.2,353.37,23.56l-47.11-80.1S618.13,723,514.47,605.25s-23.56-249.72-23.56-249.72,37.7-80.1,127.22-61.25S679.38,350.82,684.09,374.38Z"/></svg>